REM DIRINDEX 1\2,1\3,1\4,1\6,1\5\7,1\5\8
REM DIRNAME folder01,folder02,folder03,folder04,folder05,folder06,folder07,folder08
TITLE ""
FILE "DB4500_5th_2A_39.mp3" MP3
  TRACK 01 AUDIO
    TITLE "0:"
    INDEX 01 00:00:00
  TRACK 02 AUDIO
    TITLE "2:cjc114_1260"
    INDEX 01 00:00:05
  TRACK 03 AUDIO
    TITLE "0:"
    INDEX 01 00:01:17
  TRACK 04 AUDIO
    TITLE "3:cjc114_1261"
    INDEX 01 00:01:42
  TRACK 05 AUDIO
    TITLE "0:"
    INDEX 01 00:02:51
  TRACK 06 AUDIO
    TITLE "4:cjc114_1262"
    INDEX 01 00:03:02
  TRACK 07 AUDIO
    TITLE "0:"
    INDEX 01 00:06:53
  TRACK 08 AUDIO
    TITLE "2:cjc114_1263"
    INDEX 01 00:07:31
  TRACK 09 AUDIO
    TITLE "0:"
    INDEX 01 00:08:72
  TRACK 10 AUDIO
    TITLE "3:cjc114_1264"
    INDEX 01 00:09:26
  TRACK 11 AUDIO
    TITLE "0:"
    INDEX 01 00:10:47
  TRACK 12 AUDIO
    TITLE "4:cjc114_1265"
    INDEX 01 00:11:01
  TRACK 13 AUDIO
    TITLE "0:"
    INDEX 01 00:15:09
  TRACK 14 AUDIO
    TITLE "2:cjc114_1266"
    INDEX 01 00:15:62
  TRACK 15 AUDIO
    TITLE "0:"
    INDEX 01 00:16:67
  TRACK 16 AUDIO
    TITLE "3:cjc114_1267"
    INDEX 01 00:17:35
  TRACK 17 AUDIO
    TITLE "0:"
    INDEX 01 00:18:54
  TRACK 18 AUDIO
    TITLE "4:cjc114_1268"
    INDEX 01 00:19:05
  TRACK 19 AUDIO
    TITLE "0:"
    INDEX 01 00:22:56
  TRACK 20 AUDIO
    TITLE "2:cjc114_1269"
    INDEX 01 00:23:36
  TRACK 21 AUDIO
    TITLE "0:"
    INDEX 01 00:24:47
  TRACK 22 AUDIO
    TITLE "3:cjc114_1270"
    INDEX 01 00:25:01
  TRACK 23 AUDIO
    TITLE "0:"
    INDEX 01 00:26:18
  TRACK 24 AUDIO
    TITLE "4:cjc114_1271"
    INDEX 01 00:26:48
  TRACK 25 AUDIO
    TITLE "0:"
    INDEX 01 00:29:58
  TRACK 26 AUDIO
    TITLE "2:cjc114_1272"
    INDEX 01 00:30:38
  TRACK 27 AUDIO
    TITLE "0:"
    INDEX 01 00:31:45
  TRACK 28 AUDIO
    TITLE "3:cjc114_1273"
    INDEX 01 00:32:00
  TRACK 29 AUDIO
    TITLE "0:"
    INDEX 01 00:33:17
  TRACK 30 AUDIO
    TITLE "4:cjc114_1274"
    INDEX 01 00:33:46
  TRACK 31 AUDIO
    TITLE "0:"
    INDEX 01 00:36:52
  TRACK 32 AUDIO
    TITLE "2:cjc114_1275"
    INDEX 01 00:37:30
  TRACK 33 AUDIO
    TITLE "0:"
    INDEX 01 00:38:47
  TRACK 34 AUDIO
    TITLE "3:cjc114_1276"
    INDEX 01 00:39:00
  TRACK 35 AUDIO
    TITLE "0:"
    INDEX 01 00:40:23
  TRACK 36 AUDIO
    TITLE "4:cjc114_1277"
    INDEX 01 00:40:52
  TRACK 37 AUDIO
    TITLE "0:"
    INDEX 01 00:44:07
  TRACK 38 AUDIO
    TITLE "2:cjc114_1278"
    INDEX 01 00:44:61
  TRACK 39 AUDIO
    TITLE "0:"
    INDEX 01 00:45:69
  TRACK 40 AUDIO
    TITLE "3:cjc114_1279"
    INDEX 01 00:46:23
  TRACK 41 AUDIO
    TITLE "0:"
    INDEX 01 00:47:50
  TRACK 42 AUDIO
    TITLE "4:cjc114_1280"
    INDEX 01 00:48:02
  TRACK 43 AUDIO
    TITLE "0:"
    INDEX 01 00:51:11
  TRACK 44 AUDIO
    TITLE "2:cjc114_1281"
    INDEX 01 00:51:63
  TRACK 45 AUDIO
    TITLE "0:"
    INDEX 01 00:52:59
  TRACK 46 AUDIO
    TITLE "3:cjc114_1282"
    INDEX 01 00:53:09
  TRACK 47 AUDIO
    TITLE "0:"
    INDEX 01 00:54:52
  TRACK 48 AUDIO
    TITLE "4:cjc114_1283"
    INDEX 01 00:55:04
  TRACK 49 AUDIO
    TITLE "0:"
    INDEX 01 00:57:60
  TRACK 50 AUDIO
    TITLE "2:cjc114_1284"
    INDEX 01 00:58:38
  TRACK 51 AUDIO
    TITLE "0:"
    INDEX 01 00:59:45
  TRACK 52 AUDIO
    TITLE "3:cjc114_1285"
    INDEX 01 00:59:71
  TRACK 53 AUDIO
    TITLE "0:"
    INDEX 01 01:01:25
  TRACK 54 AUDIO
    TITLE "4:cjc114_1286"
    INDEX 01 01:01:50
  TRACK 55 AUDIO
    TITLE "0:"
    INDEX 01 01:04:17
  TRACK 56 AUDIO
    TITLE "2:cjc114_1287"
    INDEX 01 01:04:62
  TRACK 57 AUDIO
    TITLE "0:"
    INDEX 01 01:05:68
  TRACK 58 AUDIO
    TITLE "3:cjc114_1288"
    INDEX 01 01:06:18
  TRACK 59 AUDIO
    TITLE "0:"
    INDEX 01 01:07:15
  TRACK 60 AUDIO
    TITLE "4:cjc114_1289"
    INDEX 01 01:07:41
  TRACK 61 AUDIO
    TITLE "0:"
    INDEX 01 01:10:04
  TRACK 62 AUDIO
    TITLE "2:cjc114_1290"
    INDEX 01 01:10:55
  TRACK 63 AUDIO
    TITLE "0:"
    INDEX 01 01:11:68
  TRACK 64 AUDIO
    TITLE "3:cjc114_1291"
    INDEX 01 01:12:13
  TRACK 65 AUDIO
    TITLE "0:"
    INDEX 01 01:13:34
  TRACK 66 AUDIO
    TITLE "4:cjc114_1292"
    INDEX 01 01:13:57
  TRACK 67 AUDIO
    TITLE "0:"
    INDEX 01 01:17:06
  TRACK 68 AUDIO
    TITLE "2:cjc114_1293"
    INDEX 01 01:17:53
  TRACK 69 AUDIO
    TITLE "0:"
    INDEX 01 01:18:58
  TRACK 70 AUDIO
    TITLE "3:cjc114_1294"
    INDEX 01 01:19:03
  TRACK 71 AUDIO
    TITLE "0:"
    INDEX 01 01:20:14
  TRACK 72 AUDIO
    TITLE "4:cjc114_1295"
    INDEX 01 01:20:38
  TRACK 73 AUDIO
    TITLE "0:"
    INDEX 01 01:22:70
  TRACK 74 AUDIO
    TITLE "2:cjc114_1296"
    INDEX 01 01:23:42
  TRACK 75 AUDIO
    TITLE "0:"
    INDEX 01 01:24:51
  TRACK 76 AUDIO
    TITLE "3:cjc114_1297"
    INDEX 01 01:24:73
  TRACK 77 AUDIO
    TITLE "0:"
    INDEX 01 01:26:15
  TRACK 78 AUDIO
    TITLE "4:cjc114_1298"
    INDEX 01 01:26:38
  TRACK 79 AUDIO
    TITLE "0:"
    INDEX 01 01:30:26
  TRACK 80 AUDIO
    TITLE "2:cjc114_1299"
    INDEX 01 01:31:00
  TRACK 81 AUDIO
    TITLE "0:"
    INDEX 01 01:32:00
  TRACK 82 AUDIO
    TITLE "3:cjc114_1300"
    INDEX 01 01:32:19
  TRACK 83 AUDIO
    TITLE "0:"
    INDEX 01 01:33:52
  TRACK 84 AUDIO
    TITLE "4:cjc114_1301"
    INDEX 01 01:34:03
  TRACK 85 AUDIO
    TITLE "0:"
    INDEX 01 01:36:45
  TRACK 86 AUDIO
    TITLE "2:cjc114_1302"
    INDEX 01 01:37:15
  TRACK 87 AUDIO
    TITLE "0:"
    INDEX 01 01:38:18
  TRACK 88 AUDIO
    TITLE "3:cjc114_1303"
    INDEX 01 01:38:42
  TRACK 89 AUDIO
    TITLE "0:"
    INDEX 01 01:39:47
  TRACK 90 AUDIO
    TITLE "4:cjc114_1304"
    INDEX 01 01:39:70
  TRACK 91 AUDIO
    TITLE "0:"
    INDEX 01 01:42:65
